<svg xmlns="http://www.w3.org/2000/svg" xml:space="preserve" width="5000" height="5000" data-id="lg_WiHBOTc9HCe7tYm7Yi" data-version="1" viewBox="0 0 2000 1500"><path fill="#fff" stroke="transparent" d="M0 0h2000v1500H0z"/><g data-padding="20"><g transform="translate(-992.397 -724.345)scale(1.88713)"><rect width="320.946" height="559.35" x="734.438" y="221.587" fill="none" rx="0" ry="0" transform="translate(160.87 280)"/><path fill="#ff4136" d="M1001.11 941.732q-23.43 0-37.56-12.92t-14.13-26.69q0-2.66.36-13.16.36-10.51 1.21-24.28.84-13.77 2.05-26.33t2.9-19.56q-3.38-6.77-7.13-24.64-3.74-17.88-7.48-41.79-3.75-23.91-7.01-49.52-3.26-25.6-5.8-48.06-2.53-22.47-3.62-37.32-1.09-14.86-.6-17.27 10.63-14.5 28.5-23.56 17.88-9.05 37.2-9.29 10.63-.25 21.13 2.65 10.51 2.9 19.93 9.18l-22.94 120.05 7 3.38 64.49-135.75q3.87-1.21 12.44-2.53 8.58-1.33 18.96-1.57 9.18-.25 24.04 3.38 14.85 3.62 31.4 11.35t31.04 20.05q1.45 19.81.6 45.77-.84 25.97-3.98 53.87t-8.46 54.35q-5.31 26.45-13.04 47.46-5.07 6.04-16.43 16.3-11.35 10.27-24.15 18.48-12.8 8.22-22.46 8.46-8.22 0-24.28-2.42-16.06-2.41-34.18-6.28-18.12-3.86-32.13-8.21l8.7 43.24 49.76 3.14 6.76 29.95q-4.59 9.18-17.03 18.48t-29.59 15.46q-17.15 6.15-36.47 6.15m93.96-159.18q5.07-28.74 7.97-60.62 2.9-31.89-.24-61.36l-11.35-1.93q-6.52 10.15-16.18 25.12-9.67 14.98-19.69 31.28-10.02 16.31-18.36 30.68-8.33 14.37-12.44 23.07 4.83 1.69 15.58 7 10.75 5.32 22.83 10.03t21.25 4.95q9.18.24 10.63-8.22"/></g><path fill="transparent" stroke="transparent" stroke-width="2.013" d="M676.99 187.5h646.02v1125H676.99z"/></g></svg>